<svg width="16" height="14" viewBox="0 0 16 14" fill="none" xmlns="http://www.w3.org/2000/svg">
<path fill-rule="evenodd" clip-rule="evenodd" d="M12.8373 0.907172C14.4086 1.82292 15.5141 3.68217 15.4653 5.85117C15.4046 8.55867 13.2978 10.9467 9.7061 13.0797C9.1736 13.3962 8.6126 13.8064 7.96685 13.8064C7.3331 13.8064 6.7481 13.3887 6.22685 13.0789C2.6366 10.9467 0.529098 8.55792 0.468348 5.85117C0.419598 3.68217 1.5251 1.82367 3.09635 0.907172C4.56635 0.0514219 6.41285 0.0461717 7.96685 1.30992C9.52085 0.0461717 11.3673 0.0506719 12.8373 0.907172ZM12.0821 2.20392C11.0366 1.59492 9.7301 1.61667 8.5991 2.76117C8.51618 2.8444 8.41765 2.91043 8.30915 2.95549C8.20065 3.00054 8.08433 3.02374 7.96685 3.02374C7.84937 3.02374 7.73304 3.00054 7.62455 2.95549C7.51605 2.91043 7.41752 2.8444 7.3346 2.76117C6.2036 1.61667 4.8971 1.59492 3.8516 2.20392C2.7686 2.83542 1.9316 4.17492 1.96835 5.81892C2.01035 7.70217 3.49835 9.71442 6.99335 11.7904C7.29935 11.9727 7.61885 12.2059 7.96685 12.3027C8.31485 12.2059 8.63435 11.9727 8.94035 11.7904C12.4353 9.71442 13.9233 7.70292 13.9653 5.81817C14.0028 4.17567 13.1651 2.83542 12.0821 2.20392Z" fill="#0A0602"/>
</svg>
