<svg width="25" height="22" viewBox="0 0 25 22" fill="none" xmlns="http://www.w3.org/2000/svg">
<path d="M24.2602 19.831C22.4754 17.054 19.725 15.0627 16.5153 14.1188C18.103 13.2682 19.3365 11.972 20.0265 10.4293C20.7164 8.88662 20.8246 7.18276 20.3345 5.57938C19.8443 3.97599 18.7829 2.56174 17.3133 1.55381C15.8436 0.545881 14.047 0 12.1993 0C10.3515 0 8.55488 0.545881 7.08523 1.55381C5.61557 2.56174 4.55418 3.97599 4.06403 5.57938C3.57389 7.18276 3.68211 8.88662 4.37206 10.4293C5.06201 11.972 6.29555 13.2682 7.88324 14.1188C4.67348 15.0617 1.92309 17.0529 0.138324 19.831C0.0728733 19.927 0.0294605 20.0339 0.0106467 20.1453C-0.00816709 20.2567 -0.00200071 20.3704 0.028782 20.4796C0.0595647 20.5888 0.11434 20.6913 0.189877 20.7812C0.265413 20.871 0.36018 20.9464 0.468587 21.0027C0.576994 21.0591 0.696845 21.0953 0.821067 21.1093C0.94529 21.1233 1.07137 21.1148 1.19186 21.0842C1.31236 21.0536 1.42483 21.0017 1.52265 20.9313C1.62046 20.861 1.70163 20.7738 1.76137 20.6747C3.96918 17.2407 7.87153 15.1904 12.1993 15.1904C16.527 15.1904 20.4293 17.2407 22.6371 20.6747C22.6969 20.7738 22.7781 20.861 22.8759 20.9313C22.9737 21.0017 23.0862 21.0536 23.2067 21.0842C23.3272 21.1148 23.4532 21.1233 23.5775 21.1093C23.7017 21.0953 23.8215 21.0591 23.9299 21.0027C24.0383 20.9464 24.1331 20.871 24.2086 20.7812C24.2842 20.6913 24.339 20.5888 24.3697 20.4796C24.4005 20.3704 24.4067 20.2567 24.3879 20.1453C24.3691 20.0339 24.3256 19.927 24.2602 19.831ZM5.63676 7.59662C5.63676 6.42847 6.02164 5.28656 6.74274 4.31528C7.46384 3.344 8.48876 2.58699 9.6879 2.13996C10.887 1.69293 12.2065 1.57596 13.4795 1.80386C14.7525 2.03175 15.9219 2.59427 16.8396 3.42027C17.7574 4.24627 18.3824 5.29867 18.6357 6.44437C18.8889 7.59007 18.7589 8.77762 18.2622 9.85684C17.7655 10.9361 16.9244 11.8585 15.8452 12.5075C14.766 13.1565 13.4972 13.5029 12.1993 13.5029C10.4593 13.5012 8.79123 12.8784 7.56093 11.7711C6.33062 10.6638 5.63862 9.16254 5.63676 7.59662Z" fill="#EEE8E2"/>
</svg>
