<svg width="22" height="30" viewBox="0 0 22 30" fill="none" xmlns="http://www.w3.org/2000/svg">
<g clip-path="url(#clip0_126_569)">
<path d="M11 19C13.3869 19 15.6761 18.0518 17.364 16.364C19.0518 14.6761 20 12.3869 20 10C20 7.61305 19.0518 5.32387 17.364 3.63604C15.6761 1.94821 13.3869 1 11 1C8.61305 1 6.32387 1.94821 4.63604 3.63604C2.94821 5.32387 2 7.61305 2 10C2 12.3869 2.94821 14.6761 4.63604 16.364C6.32387 18.0518 8.61305 19 11 19ZM11 19V28M7.25 10C7.25 9.00544 7.64509 8.05161 8.34835 7.34835C9.05161 6.64509 10.0054 6.25 11 6.25" stroke="#0A0602" stroke-width="2.5" stroke-linecap="round" stroke-linejoin="round"/>
</g>
<defs>
<clipPath id="clip0_126_569">
<rect width="22" height="30" fill="white"/>
</clipPath>
</defs>
</svg>
