<svg width="19" height="20" viewBox="0 0 19 20" fill="none" xmlns="http://www.w3.org/2000/svg">
<g clip-path="url(#clip0_551_3301)">
<path d="M7.24813 5.07457C8.25022 3.27762 8.75086 2.37915 9.49985 2.37915C10.2488 2.37915 10.7495 3.27762 11.7516 5.07457L12.011 5.53962C12.2957 6.05055 12.4381 6.30601 12.6595 6.47448C12.881 6.64294 13.1578 6.70542 13.7114 6.83039L14.2145 6.94428C16.1601 7.38481 17.1321 7.60469 17.3639 8.34893C17.5948 9.09239 16.932 9.86827 15.6057 11.4192L15.2624 11.8202C14.8859 12.2608 14.6969 12.4814 14.6123 12.7535C14.5277 13.0264 14.5561 13.3206 14.6131 13.9082L14.6653 14.4437C14.8654 16.5135 14.9658 17.548 14.36 18.0075C13.7542 18.467 12.843 18.0479 11.0224 17.2095L10.5502 16.9928C10.0329 16.7539 9.7743 16.6353 9.49985 16.6353C9.22541 16.6353 8.96678 16.7539 8.44952 16.9928L7.97814 17.2095C6.15668 18.0479 5.24555 18.467 4.64051 18.0083C4.03388 17.548 4.13433 16.5135 4.33443 14.4437L4.38663 13.909C4.44357 13.3206 4.47204 13.0264 4.38663 12.7543C4.30279 12.4814 4.11376 12.2608 3.73729 11.821L3.39403 11.4192C2.06768 9.86906 1.4049 9.09318 1.63584 8.34893C1.86679 7.60469 2.8404 7.38402 4.78603 6.94428L5.28905 6.83039C5.8419 6.70542 6.11793 6.64294 6.34017 6.47448C6.56242 6.30601 6.70399 6.05055 6.98872 5.53962L7.24813 5.07457Z" fill="#EE8B1B" stroke="#EE8B1B" stroke-width="1.5"/>
</g>
<defs>
<clipPath id="clip0_551_3301">
<rect width="18.9818" height="18.9818" fill="white" transform="translate(0.0090332 0.797363)"/>
</clipPath>
</defs>
</svg>
