<svg width="18" height="18" viewBox="0 0 18 18" fill="none" xmlns="http://www.w3.org/2000/svg">
<path d="M6.75717 4.07457C7.75925 2.27762 8.25989 1.37915 9.00888 1.37915C9.75788 1.37915 10.2585 2.27762 11.2606 4.07457L11.52 4.53962C11.8047 5.05055 11.9471 5.30601 12.1686 5.47448C12.39 5.64294 12.6668 5.70542 13.2205 5.83039L13.7235 5.94428C15.6691 6.38481 16.6412 6.60469 16.8729 7.34893C17.1038 8.09239 16.4411 8.86827 15.1147 10.4192L14.7714 10.8202C14.395 11.2608 14.2059 11.4814 14.1213 11.7535C14.0367 12.0264 14.0652 12.3206 14.1221 12.9082L14.1743 13.4437C14.3744 15.5135 14.4749 16.548 13.869 17.0075C13.2632 17.467 12.3521 17.0479 10.5314 16.2095L10.0592 15.9928C9.54196 15.7539 9.28333 15.6353 9.00888 15.6353C8.73444 15.6353 8.47581 15.7539 7.95856 15.9928L7.48718 16.2095C5.66571 17.0479 4.75459 17.467 4.14954 17.0083C3.54291 16.548 3.64336 15.5135 3.84346 13.4437L3.89566 12.909C3.9526 12.3206 3.98108 12.0264 3.89566 11.7543C3.81182 11.4814 3.6228 11.2608 3.24632 10.821L2.90307 10.4192C1.57671 8.86906 0.913932 8.09318 1.14488 7.34893C1.37582 6.60469 2.34943 6.38402 4.29507 5.94428L4.79809 5.83039C5.35093 5.70542 5.62696 5.64294 5.8492 5.47448C6.07145 5.30601 6.21302 5.05055 6.49775 4.53962L6.75717 4.07457Z" stroke="#EE8B1B" stroke-width="1.5"/>
</svg>
