<svg width="25" height="24" viewBox="0 0 25 24" fill="none" xmlns="http://www.w3.org/2000/svg">
<path d="M24.0015 9.99869H9.76275L23.2515 6.43744C23.3792 6.4038 23.4989 6.34521 23.6038 6.26504C23.7088 6.18488 23.7968 6.08473 23.8628 5.97038C23.9288 5.85602 23.9715 5.72973 23.9884 5.59878C24.0054 5.46784 23.9962 5.33483 23.9615 5.20744L22.9415 1.45744C22.8011 0.952928 22.4676 0.524025 22.0133 0.263626C21.5589 0.00322697 21.0203 -0.0677044 20.514 0.0661944L1.47775 5.09119C1.22429 5.15699 0.986493 5.27269 0.778296 5.43152C0.570099 5.59035 0.39568 5.78912 0.26525 6.01619C0.134025 6.24045 0.0492484 6.48882 0.0159633 6.74651C-0.0173217 7.0042 0.00156488 7.26595 0.0714998 7.51619L1.0015 10.9437V21.9987C1.0015 22.5291 1.21221 23.0378 1.58729 23.4129C1.96236 23.788 2.47107 23.9987 3.0015 23.9987H23.0015C23.5319 23.9987 24.0406 23.788 24.4157 23.4129C24.7908 23.0378 25.0015 22.5291 25.0015 21.9987V10.9987C25.0015 10.7335 24.8961 10.4791 24.7086 10.2916C24.5211 10.1041 24.2667 9.99869 24.0015 9.99869ZM21.0215 1.99869L21.7715 4.75744L18.944 5.50744L15.429 3.47744L21.0215 1.99869ZM12.6853 4.19869L16.2002 6.22869L11.5828 7.44744L8.06775 5.41994L12.6853 4.19869ZM2.76025 9.77619L2.01025 7.01619L5.32275 6.14119L8.83775 8.17369L2.76025 9.77619ZM23.0015 21.9987H3.0015V11.9987H23.0015V21.9987Z" fill="#EEE8E2"/>
</svg>
