<svg width="41" height="44" viewBox="0 0 41 44" fill="none" xmlns="http://www.w3.org/2000/svg">
<rect x="0.5" y="0.5" width="40.0003" height="42.3329" rx="4.5" stroke="#EE8B1B"/>
<path d="M18.1673 14.6666C19.4559 14.6666 20.5006 13.6219 20.5006 12.3333C20.5006 11.0446 19.4559 10 18.1673 10C16.8786 10 15.834 11.0446 15.834 12.3333C15.834 13.6219 16.8786 14.6666 18.1673 14.6666Z" fill="#EE8B1B"/>
<path d="M27.4771 24.938C27.4242 24.6736 27.2814 24.4357 27.073 24.2647C26.8646 24.0937 26.6033 24.0002 26.3337 24H21.512L21.0115 20.5001H26.3337V18.1668H20.679L20.4889 16.8345C20.449 16.5566 20.3103 16.3024 20.0981 16.1185C19.886 15.9347 19.6146 15.8335 19.3339 15.8335H18.1672C18.0002 15.834 17.8352 15.8704 17.6834 15.94C17.5315 16.0096 17.3964 16.1109 17.287 16.2372C17.1775 16.3634 17.0964 16.5115 17.049 16.6717C17.0017 16.8319 16.9891 17.0004 17.0123 17.1658L18.0354 24.3313C18.1174 24.8861 18.3956 25.3931 18.8194 25.7604C19.2432 26.1277 19.7846 26.3309 20.3454 26.3333H25.3771L26.3559 31.2285C26.4656 31.7733 26.9439 32.1665 27.5004 32.1665H31.0003V29.8332H28.4559L27.4771 24.938Z" fill="#EE8B1B"/>
<path d="M22.2614 28.083C21.3993 29.805 19.6365 30.9996 17.5832 30.9996C16.1913 30.9981 14.8569 30.4445 13.8726 29.4603C12.8884 28.4761 12.3348 27.1416 12.3333 25.7497C12.3348 24.7043 12.6484 23.6831 13.2339 22.817C13.8194 21.9509 14.6501 21.2793 15.6197 20.8883L15.2826 18.5259C12.2225 19.5024 10 22.3711 10 25.7497C10 29.931 13.4019 33.3329 17.5832 33.3329C18.8837 33.3308 20.1618 32.9942 21.2947 32.3555C22.4276 31.7169 23.3772 30.7976 24.0522 29.686L23.7326 28.083H22.2614Z" fill="#EE8B1B"/>
</svg>
