<svg width="42" height="44" viewBox="0 0 42 44" fill="none" xmlns="http://www.w3.org/2000/svg">
<rect x="1" y="0.5" width="40.0003" height="42.3329" rx="4.5" stroke="#EEE8E2"/>
<path d="M18.6673 14.6666C19.9559 14.6666 21.0006 13.6219 21.0006 12.3333C21.0006 11.0446 19.9559 10 18.6673 10C17.3786 10 16.334 11.0446 16.334 12.3333C16.334 13.6219 17.3786 14.6666 18.6673 14.6666Z" fill="#EEE8E2"/>
<path d="M27.9771 24.938C27.9242 24.6736 27.7814 24.4357 27.573 24.2647C27.3646 24.0937 27.1033 24.0002 26.8337 24H22.012L21.5115 20.5001H26.8337V18.1668H21.179L20.9889 16.8345C20.949 16.5566 20.8103 16.3024 20.5981 16.1185C20.386 15.9347 20.1146 15.8335 19.8339 15.8335H18.6672C18.5002 15.834 18.3352 15.8704 18.1834 15.94C18.0315 16.0096 17.8964 16.1109 17.787 16.2372C17.6775 16.3634 17.5964 16.5115 17.549 16.6717C17.5017 16.8319 17.4891 17.0004 17.5123 17.1658L18.5354 24.3313C18.6174 24.8861 18.8956 25.3931 19.3194 25.7604C19.7432 26.1277 20.2846 26.3309 20.8454 26.3333H25.8771L26.8559 31.2285C26.9656 31.7733 27.4439 32.1665 28.0004 32.1665H31.5003V29.8332H28.9559L27.9771 24.938Z" fill="#EEE8E2"/>
<path d="M22.7614 28.083C21.8993 29.805 20.1365 30.9996 18.0832 30.9996C16.6913 30.9981 15.3569 30.4445 14.3726 29.4603C13.3884 28.4761 12.8348 27.1416 12.8333 25.7497C12.8348 24.7043 13.1484 23.6831 13.7339 22.817C14.3194 21.9509 15.1501 21.2793 16.1197 20.8883L15.7826 18.5259C12.7225 19.5024 10.5 22.3711 10.5 25.7497C10.5 29.931 13.9019 33.3329 18.0832 33.3329C19.3837 33.3308 20.6618 32.9942 21.7947 32.3555C22.9276 31.7169 23.8772 30.7976 24.5522 29.686L24.2326 28.083H22.7614Z" fill="#EEE8E2"/>
</svg>
