<svg width="24" height="26" viewBox="0 0 24 26" fill="none" xmlns="http://www.w3.org/2000/svg">
<path d="M1.20245 17.2573L10.1468 1.76521C10.5663 1.03851 11.5329 0.769141 12.315 1.2207L14.4242 2.43847C14.2216 3.62269 14.7732 4.85346 15.8693 5.48633C16.9654 6.11913 18.3063 5.9808 19.2305 5.21337L21.3406 6.43163C22.1227 6.8832 22.3727 7.85491 21.9531 8.58161L13.0088 24.0737C12.5893 24.8004 11.6227 25.0697 10.8406 24.6182L8.73051 23.3999C8.93305 22.2158 8.38237 20.9854 7.2863 20.3525C6.19012 19.7197 4.84847 19.8573 3.92424 20.625L1.815 19.4072C1.03287 18.9557 0.782892 17.9839 1.20245 17.2573Z" stroke="#EEE8E2" stroke-width="2"/>
</svg>
