<svg width="42" height="38" viewBox="0 0 42 38" fill="none" xmlns="http://www.w3.org/2000/svg">
<path d="M35.584 14.166C34.0239 14.166 32.75 15.44 32.75 17V24.583H9.25V17C9.25 15.44 7.97704 14.166 6.41699 14.166C4.85695 14.166 3.58398 15.44 3.58398 17V27.416C3.58398 28.9761 4.85695 30.25 6.41699 30.25H35.584C37.1439 30.2498 38.417 28.976 38.417 27.416V17C38.417 15.4401 37.1439 14.1662 35.584 14.166ZM12.667 3.75C11.1069 3.75 9.83398 5.02296 9.83398 6.58301V12.708L10.0811 12.9316C11.2058 13.9457 11.917 15.3942 11.917 17V21.916H30.084V17C30.084 15.3943 30.7943 13.9457 31.9189 12.9316L32.167 12.708V6.58301C32.167 5.02307 30.8939 3.75018 29.334 3.75H12.667ZM7.16699 32.916H6.41699C3.39371 32.916 0.916992 30.4393 0.916992 27.416V17C0.916992 13.9767 3.39371 11.5 6.41699 11.5H7.16699V6.58301C7.16699 3.55972 9.64371 1.08301 12.667 1.08301H29.334C32.3571 1.08319 34.834 3.55983 34.834 6.58301V11.5H35.584C38.6071 11.5002 41.084 13.9768 41.084 17V27.416C41.084 30.4392 38.6071 32.9158 35.584 32.916H34.834V37.083H32.167V32.916H9.83398V37.083H7.16699V32.916Z" fill="#EE8B1B" stroke="#0A0602" stroke-width="1.5"/>
</svg>
