<svg width="50" height="51" viewBox="0 0 50 51" fill="none" xmlns="http://www.w3.org/2000/svg">
<path d="M39.584 22.499C38.0239 22.499 36.75 23.773 36.75 25.333V32.916H13.25V25.333C13.25 23.773 11.977 22.499 10.417 22.499C8.85695 22.499 7.58398 23.773 7.58398 25.333V35.749C7.58398 37.3091 8.85695 38.583 10.417 38.583H39.584C41.1439 38.5828 42.417 37.309 42.417 35.749V25.333C42.417 23.7731 41.1439 22.4992 39.584 22.499ZM16.667 12.083C15.1069 12.083 13.834 13.356 13.834 14.916V21.041L14.0811 21.2646C15.2058 22.2787 15.917 23.7272 15.917 25.333V30.249H34.084V25.333C34.084 23.7273 34.7943 22.2787 35.9189 21.2646L36.167 21.041V14.916C36.167 13.3561 34.8939 12.0832 33.334 12.083H16.667ZM11.167 41.249H10.417C7.39371 41.249 4.91699 38.7723 4.91699 35.749V25.333C4.91699 22.3097 7.39371 19.833 10.417 19.833H11.167V14.916C11.167 11.8927 13.6437 9.41602 16.667 9.41602H33.334C36.3571 9.41619 38.834 11.8928 38.834 14.916V19.833H39.584C42.6071 19.8332 45.084 22.3098 45.084 25.333V35.749C45.084 38.7722 42.6071 41.2488 39.584 41.249H38.834V45.416H36.167V41.249H13.834V45.416H11.167V41.249Z" fill="#EEE8E2" stroke="#0A0602" stroke-width="1.5"/>
</svg>
