<svg width="19" height="19" viewBox="0 0 19 19" fill="none" xmlns="http://www.w3.org/2000/svg">
<g clip-path="url(#clip0_545_8533)">
<path d="M7.23959 4.27745C8.24167 2.4805 8.74232 1.58203 9.49131 1.58203C10.2403 1.58203 10.7409 2.4805 11.743 4.27745L12.0024 4.7425C12.2872 5.25343 12.4295 5.50889 12.651 5.67736C12.8724 5.84582 13.1493 5.9083 13.7029 6.03327L14.2059 6.14716C16.1516 6.58769 17.1236 6.80757 17.3553 7.55181C17.5863 8.29527 16.9235 9.07115 15.5971 10.6221L15.2539 11.0231C14.8774 11.4636 14.6884 11.6843 14.6037 11.9564C14.5191 12.2292 14.5476 12.5235 14.6045 13.1111L14.6567 13.6466C14.8568 15.7164 14.9573 16.7509 14.3514 17.2104C13.7456 17.6699 12.8345 17.2507 11.0138 16.4124L10.5416 16.1957C10.0244 15.9568 9.76575 15.8382 9.49131 15.8382C9.21686 15.8382 8.95823 15.9568 8.44098 16.1957L7.9696 16.4124C6.14814 17.2507 5.23701 17.6699 4.63196 17.2112C4.02534 16.7509 4.12578 15.7164 4.32588 13.6466L4.37808 13.1119C4.43503 12.5235 4.4635 12.2292 4.37808 11.9572C4.29424 11.6843 4.10522 11.4636 3.72874 11.0239L3.38549 10.6221C2.05914 9.07194 1.39635 8.29606 1.6273 7.55181C1.85824 6.80757 2.83185 6.5869 4.77749 6.14716L5.28051 6.03327C5.83335 5.9083 6.10938 5.84582 6.33163 5.67736C6.55387 5.50889 6.69544 5.25343 6.98017 4.7425L7.23959 4.27745Z" stroke="#EE8B1B" stroke-width="1.5"/>
<path d="M6.24512 6L9.5 1.5V16L4.24512 17.5V12L1.74512 7L6.24512 6Z" fill="#EE8B1B"/>
</g>
<defs>
<clipPath id="clip0_545_8533">
<rect width="18.9818" height="18.9818" fill="white"/>
</clipPath>
</defs>
</svg>
