<svg width="36" height="32" viewBox="0 0 36 32" fill="none" xmlns="http://www.w3.org/2000/svg">
<path d="M32.4736 26.5C30.3318 23.2087 27.0314 20.8487 23.1797 19.73C25.0849 18.7218 26.5651 17.1856 27.3931 15.3572C28.221 13.5289 28.3509 11.5095 27.7627 9.60918C27.1745 7.70887 25.9009 6.03272 24.1373 4.83814C22.3737 3.64355 20.2177 2.99658 18.0004 2.99658C15.7832 2.99658 13.6272 3.64355 11.8636 4.83814C10.1 6.03272 8.82634 7.70887 8.23817 9.60918C7.65 11.5095 7.77986 13.5289 8.6078 15.3572C9.43574 17.1856 10.916 18.7218 12.8212 19.73C8.9695 20.8475 5.66904 23.2075 3.52732 26.5C3.44878 26.6138 3.39668 26.7405 3.3741 26.8725C3.35153 27.0045 3.35893 27.1392 3.39587 27.2687C3.43281 27.3981 3.49854 27.5197 3.58918 27.6262C3.67982 27.7326 3.79354 27.8219 3.92363 27.8887C4.05372 27.9555 4.19754 27.9985 4.34661 28.015C4.49568 28.0316 4.64697 28.0215 4.79157 27.9853C4.93616 27.949 5.07113 27.8874 5.1885 27.8041C5.30588 27.7207 5.40328 27.6173 5.47497 27.5C8.12435 23.43 12.8072 21 18.0004 21C23.1937 21 27.8765 23.43 30.5259 27.5C30.5976 27.6173 30.695 27.7207 30.8124 27.8041C30.9298 27.8874 31.0647 27.949 31.2093 27.9853C31.3539 28.0215 31.5052 28.0316 31.6543 28.015C31.8033 27.9985 31.9472 27.9555 32.0772 27.8887C32.2073 27.8219 32.3211 27.7326 32.4117 27.6262C32.5023 27.5197 32.5681 27.3981 32.605 27.2687C32.642 27.1392 32.6494 27.0045 32.6268 26.8725C32.6042 26.7405 32.5521 26.6138 32.4736 26.5ZM10.1254 12C10.1254 10.6155 10.5873 9.26214 11.4526 8.11099C12.3179 6.95985 13.5478 6.06264 14.9868 5.53283C16.4258 5.00301 18.0092 4.86439 19.5368 5.13449C21.0644 5.40458 22.4676 6.07127 23.5689 7.05023C24.6702 8.0292 25.4203 9.27648 25.7241 10.6344C26.028 11.9922 25.872 13.3997 25.276 14.6788C24.68 15.9578 23.6706 17.0511 22.3756 17.8203C21.0805 18.5894 19.558 19 18.0004 19C15.9125 18.998 13.9108 18.2599 12.4344 16.9475C10.9581 15.6352 10.1277 13.8559 10.1254 12Z" fill="#EEE8E2"/>
</svg>
